<svg width="178" height="42" viewBox="0 0 178 42" fill="none" xmlns="http://www.w3.org/2000/svg">
<path d="M6.68982 9.59289L0.375359 10.9386L6.70129 12.7904C7.09477 12.9083 7.44953 13.1294 7.72865 13.4308C8.00777 13.7322 8.20108 14.1028 8.28853 14.5041L9.86426 22.0722L11.5665 14.6422C11.6663 14.2274 11.8794 13.8486 12.182 13.548C12.4846 13.2474 12.8649 13.0368 13.2803 12.9399L19.6062 11.5022L13.0962 9.67341C12.7076 9.54301 12.3609 9.31113 12.0919 9.00173C11.823 8.69234 11.6416 8.31668 11.5665 7.91365L10.1173 0.621582L8.47257 7.86764C8.37136 8.29552 8.14966 8.68544 7.8337 8.9912C7.51775 9.29697 7.12078 9.50577 6.68982 9.59289Z" fill="#0075FF"/>
<path d="M15.6457 30.1071L9.9904 31.3123L15.656 32.9708C16.0084 33.0764 16.3261 33.2744 16.5761 33.5443C16.8261 33.8143 16.9992 34.1462 17.0775 34.5056L18.4888 41.2837L20.0133 34.6292C20.1027 34.2578 20.2935 33.9185 20.5646 33.6493C20.8356 33.3801 21.1761 33.1915 21.5482 33.1047L27.2137 31.817L21.3833 30.1792C21.0353 30.0624 20.7247 29.8547 20.4839 29.5776C20.243 29.3005 20.0805 28.9641 20.0133 28.6031L18.7154 22.0723L17.2423 28.5619C17.1517 28.9451 16.9531 29.2943 16.6702 29.5682C16.3872 29.842 16.0317 30.029 15.6457 30.1071Z" fill="#0075FF"/>
<path d="M28.4683 14.3663L18.794 16.4281L28.4859 19.2651C29.0887 19.4458 29.6322 19.7846 30.0599 20.2463C30.4875 20.708 30.7837 21.2758 30.9177 21.8907L33.3318 33.4857L35.9398 22.1022C36.0926 21.4668 36.4191 20.8864 36.8828 20.4258C37.3464 19.9653 37.929 19.6427 38.5654 19.4942L48.2572 17.2915L38.2834 14.4897C37.688 14.2899 37.1568 13.9346 36.7447 13.4606C36.3327 12.9866 36.0548 12.4111 35.9398 11.7936L33.7195 0.621582L31.1996 11.7231C31.0446 12.3786 30.7049 12.976 30.2208 13.4445C29.7367 13.913 29.1286 14.2329 28.4683 14.3663Z" fill="#0075FF"/>
</svg>
