<svg width="121" height="24" viewBox="0 0 121 24" fill="none" xmlns="http://www.w3.org/2000/svg">
<path d="M0.520508 9.7955C0.520508 8.2552 0.897806 6.8327 1.65221 5.5282C2.42231 4.2236 3.45971 3.1941 4.76431 2.4397C6.06881 1.6695 7.49121 1.2844 9.03161 1.2844C10.6033 1.2844 12.0572 1.6931 13.3932 2.5104C14.7291 3.312 15.7586 4.3808 16.4816 5.7168L13.7704 7.1549C13.2989 6.3219 12.6387 5.6539 11.79 5.1509C10.9412 4.6323 10.0218 4.3729 9.03161 4.3729C8.05711 4.3729 7.14551 4.6166 6.29671 5.1038C5.46371 5.591 4.80351 6.2512 4.31631 7.0842C3.82911 7.9172 3.58541 8.821 3.58541 9.7955C3.58541 10.77 3.82911 11.6737 4.31631 12.5067C4.80351 13.3398 5.46371 13.9999 6.29671 14.4871C7.14551 14.9744 8.05711 15.218 9.03161 15.218C10.0532 15.218 10.9805 14.9587 11.8136 14.44C12.6623 13.9213 13.3224 13.2297 13.794 12.3653L16.5052 13.8506C15.7822 15.2023 14.7527 16.2868 13.4167 17.1041C12.0807 17.9057 10.619 18.3065 9.03161 18.3065C7.49121 18.3065 6.06881 17.9293 4.76431 17.1748C3.45971 16.4047 2.42231 15.3673 1.65221 14.0628C0.897806 12.7582 0.520508 11.3358 0.520508 9.7955ZM21.6701 14.6757C21.6701 14.9272 21.7329 15.108 21.8587 15.218C21.9844 15.328 22.1809 15.383 22.4481 15.383C22.6524 15.383 22.896 15.3595 23.179 15.3123V18C22.5974 18.0943 22.0552 18.1415 21.5522 18.1415C20.6406 18.1415 19.9412 17.9057 19.4539 17.4342C18.9824 16.9469 18.7466 16.0903 18.7466 14.8644V1.4966H21.6701V14.6757ZM30.3653 5.9054C31.497 5.9054 32.5107 6.1883 33.4066 6.7541C34.3182 7.3042 35.0255 8.0508 35.5285 8.9939C36.0314 9.9369 36.2829 10.9821 36.2829 12.1295C36.2829 12.5067 36.2515 12.8525 36.1886 13.1669H27.0882C27.324 13.9999 27.7405 14.6522 28.3377 15.1237C28.935 15.5795 29.6973 15.8074 30.6246 15.8074C31.1905 15.8074 31.7327 15.6817 32.2514 15.4302C32.7858 15.1787 33.1866 14.8565 33.4538 14.4636L35.6935 15.7838C35.1434 16.6011 34.4283 17.2298 33.5481 17.6699C32.6836 18.0943 31.6856 18.3065 30.5539 18.3065C29.2965 18.3065 28.1806 18.0393 27.2061 17.5049C26.2316 16.9705 25.4771 16.2318 24.9428 15.2887C24.4241 14.3457 24.1647 13.2848 24.1647 12.1059C24.1647 10.9428 24.4241 9.8898 24.9428 8.9467C25.4771 8.0037 26.2159 7.265 27.1589 6.7306C28.102 6.1804 29.1708 5.9054 30.3653 5.9054ZM33.5481 10.88C33.4223 10.1255 33.0687 9.5361 32.4872 9.1118C31.9213 8.6717 31.2062 8.4516 30.3417 8.4516C29.7445 8.4516 29.1943 8.5616 28.6914 8.7817C28.2041 9.0017 27.8112 9.3004 27.5126 9.6776C27.2139 10.0548 27.0568 10.4556 27.041 10.88H33.5481ZM47.374 6.2119H50.298V18H47.374V16.8448C46.824 17.3163 46.219 17.6857 45.559 17.9528C44.915 18.2043 44.231 18.3301 43.5079 18.3301C42.3134 18.3301 41.2682 18.0629 40.3723 17.5285C39.4764 16.9941 38.7848 16.2554 38.2976 15.3123C37.8261 14.3693 37.5903 13.3083 37.5903 12.1295C37.5903 10.9507 37.8261 9.8898 38.2976 8.9467C38.7848 8.0037 39.4764 7.265 40.3723 6.7306C41.2682 6.1804 42.3134 5.9054 43.5079 5.9054C44.231 5.9054 44.915 6.039 45.559 6.3062C46.219 6.5577 46.824 6.9192 47.374 7.3907V6.2119ZM43.8852 15.5245C44.53 15.5245 45.111 15.383 45.63 15.1001C46.164 14.8015 46.581 14.3928 46.879 13.8742C47.194 13.3555 47.351 12.7661 47.351 12.1059C47.351 11.1157 47.013 10.3063 46.337 9.6776C45.677 9.0489 44.86 8.7345 43.8852 8.7345C42.895 8.7345 42.0777 9.0567 41.4332 9.7012C40.8045 10.3299 40.4902 11.1393 40.4902 12.1295C40.4902 13.1197 40.8045 13.937 41.4332 14.5814C42.0777 15.2101 42.895 15.5245 43.8852 15.5245ZM59.294 5.9054C59.985 5.9054 60.685 6.0547 61.392 6.3533C62.115 6.6363 62.728 7.1549 63.231 7.9094C63.749 8.6638 64.009 9.6776 64.009 10.9507V18H61.085V10.9507C61.085 10.0705 60.834 9.4418 60.331 9.0646C59.844 8.6717 59.27 8.4752 58.61 8.4752C57.95 8.4752 57.384 8.711 56.912 9.1825C56.457 9.6383 56.229 10.377 56.229 11.3987V18H53.305V6.2119H56.229V7.2021C56.653 6.8091 57.125 6.4948 57.643 6.259C58.162 6.0233 58.712 5.9054 59.294 5.9054ZM67.845 4.2551C67.295 4.2551 66.863 4.1057 66.549 3.8071C66.234 3.5085 66.077 3.0998 66.077 2.5811C66.077 2.0467 66.234 1.6302 66.549 1.3316C66.863 1.033 67.295 0.883598 67.845 0.883598C68.396 0.883598 68.828 1.033 69.142 1.3316C69.456 1.6302 69.614 2.0467 69.614 2.5811C69.614 3.0841 69.449 3.4928 69.119 3.8071C68.804 4.1057 68.38 4.2551 67.845 4.2551ZM66.36 18V6.2119H69.284V18H66.36ZM78.196 5.9054C78.888 5.9054 79.587 6.0547 80.294 6.3533C81.017 6.6363 81.63 7.1549 82.133 7.9094C82.652 8.6638 82.911 9.6776 82.911 10.9507V18H79.988V10.9507C79.988 10.0705 79.736 9.4418 79.233 9.0646C78.746 8.6717 78.172 8.4752 77.512 8.4752C76.852 8.4752 76.286 8.711 75.815 9.1825C75.359 9.6383 75.131 10.377 75.131 11.3987V18H72.208V6.2119H75.131V7.2021C75.555 6.8091 76.027 6.4948 76.546 6.259C77.064 6.0233 77.614 5.9054 78.196 5.9054ZM94.504 6.2119H97.428V17.4106C97.428 18.5265 97.145 19.5089 96.579 20.3576C96.029 21.2064 95.259 21.8586 94.269 22.3145C93.278 22.786 92.17 23.0217 90.944 23.0217C89.577 23.0217 88.335 22.7545 87.219 22.2201C86.103 21.7015 85.318 21.0178 84.862 20.169L87.361 18.7309C87.597 19.1867 88.037 19.5639 88.681 19.8625C89.326 20.1769 90.104 20.334 91.015 20.334C92.021 20.334 92.854 20.059 93.514 19.5089C94.174 18.9745 94.504 18.2751 94.504 17.4106V16.8683C93.97 17.3399 93.373 17.7014 92.713 17.9528C92.053 18.2043 91.369 18.3301 90.662 18.3301C89.467 18.3301 88.422 18.0629 87.526 17.5285C86.63 16.9941 85.938 16.2554 85.451 15.3123C84.98 14.3693 84.744 13.3083 84.744 12.1295C84.744 10.9507 84.98 9.8898 85.451 8.9467C85.938 8.0037 86.63 7.265 87.526 6.7306C88.422 6.1804 89.467 5.9054 90.662 5.9054C91.369 5.9054 92.045 6.039 92.689 6.3062C93.349 6.5577 93.954 6.9113 94.504 7.3671V6.2119ZM91.039 15.5245C91.683 15.5245 92.265 15.383 92.783 15.1001C93.318 14.8015 93.734 14.3928 94.033 13.8742C94.347 13.3555 94.504 12.7661 94.504 12.1059C94.504 11.1157 94.167 10.3063 93.491 9.6776C92.831 9.0489 92.013 8.7345 91.039 8.7345C90.049 8.7345 89.231 9.0567 88.587 9.7012C87.958 10.3299 87.644 11.1393 87.644 12.1295C87.644 13.1197 87.958 13.937 88.587 14.5814C89.231 15.2101 90.049 15.5245 91.039 15.5245ZM115.072 9.7247L120.423 18H116.746L112.926 12.0824L109.107 18H105.429L110.781 9.7247L105.452 1.4966H109.13L112.926 7.3671L116.722 1.4966H120.4L115.072 9.7247Z" fill="#211F54"/>
</svg>
